<?xml version="1.0" encoding="utf-8"?>
<!-- Generator: Adobe Illustrator 25.2.1, SVG Export Plug-In . SVG Version: 6.00 Build 0)  -->
<svg version="1.1" id="svg10654" xmlns:svg="http://www.w3.org/2000/svg"
	 xmlns="http://www.w3.org/2000/svg" xmlns:xlink="http://www.w3.org/1999/xlink" x="0px" y="0px" viewBox="0 0 512 512"
	 style="enable-background:new 0 0 512 512;" xml:space="preserve">
<style type="text/css">
	.st0{fill:#FF0000;}
</style>
<g id="layer1" transform="translate(0 -290.65)">
	<path id="path9509" vector-effect="none" class="st0" d="M329.8,418.4c-4.8,0.3-9.4,2.2-13,5.4l-149.5,128c-9,7.7-10,21.1-2.4,30.1
		c0.7,0.9,1.5,1.7,2.4,2.4l149.5,127.9c8.3,8.3,21.8,8.3,30.2,0s8.3-21.8,0-30.2c-0.8-0.8-1.6-1.5-2.4-2.1L213.9,568l130.5-111.8
		c9.1-7.5,10.4-20.9,2.9-30C343.1,420.9,336.5,418,329.8,418.4L329.8,418.4z"/>
</g>
</svg>
